<svg xmlns="http://www.w3.org/2000/svg" viewBox="0 0 378.94 50.65">
  <defs>
    <style>
      .a {
        isolation: isolate;
        fill: #fff;
      }
    </style>
  </defs>
  <title>Who Said It Logo</title>
  <g class="a">
    <path d="M64.1,15.63a16.3,16.3,0,0,0-.41-4.31,7.58,7.58,0,0,1-.42-1.9c0-.6.28-.9.83-.9a7.59,7.59,0,0,1,2.45.55,13.69,13.69,0,0,1,2.86,1.49,10.53,10.53,0,0,1,2.38,2.17,4.2,4.2,0,0,1,1,2.69,48.77,48.77,0,0,1-.93,9.14,66,66,0,0,1-2.65,9.73,72.35,72.35,0,0,1-4.07,9.35A48.28,48.28,0,0,1,60,51.58a25.93,25.93,0,0,1-6,5.52,11.91,11.91,0,0,1-6.52,2.07A7.74,7.74,0,0,1,42.88,58a9.78,9.78,0,0,1-2.65-2.73,11.43,11.43,0,0,1-1.52-4,38.74,38.74,0,0,1-4.35,4A25.94,25.94,0,0,1,29.88,58a11.65,11.65,0,0,1-5.18,1.21,9.62,9.62,0,0,1-3.17-.52,9.24,9.24,0,0,1-2.73-1.48,7.09,7.09,0,0,1-1.9-2.35,7,7,0,0,1-.69-3.17,17.63,17.63,0,0,1,.94-5.32,61.24,61.24,0,0,1,2.34-6.07c.94-2.11,2-4.26,3.07-6.45s2.13-4.35,3.07-6.49A59.06,59.06,0,0,0,28,21.18a18,18,0,0,0,.93-5.41,3.57,3.57,0,0,0-.69-2.18,2.65,2.65,0,0,0-2.28-.93,9.5,9.5,0,0,0-4.79,1.69A24.93,24.93,0,0,0,16,18.6a28.27,28.27,0,0,0-4,5.52,11.25,11.25,0,0,0-1.66,5.45,9,9,0,0,0,.52,3.31A9.72,9.72,0,0,0,12,35.09a11,11,0,0,0,1.17,1.38,1.27,1.27,0,0,1,.52.82c0,.88-.48,1.32-1.45,1.32a9,9,0,0,1-3.34-.83,17.47,17.47,0,0,1-3.8-2.21A14.4,14.4,0,0,1,2,32.33,6.79,6.79,0,0,1,.69,28.39,10.26,10.26,0,0,1,2,23.53a19.85,19.85,0,0,1,3.52-4.66,32.94,32.94,0,0,1,5-4.1,40.29,40.29,0,0,1,5.86-3.28,37.54,37.54,0,0,1,6-2.17,21.59,21.59,0,0,1,5.48-.8,10.39,10.39,0,0,1,6.8,2.11q2.59,2.1,2.59,6.38a16.46,16.46,0,0,1-.86,4.86c-.58,1.82-1.3,3.75-2.18,5.8S32.48,31.81,31.46,34s-1.95,4.21-2.83,6.21S27,44,26.46,45.78a15.08,15.08,0,0,0-.86,4.56,2.87,2.87,0,0,0,.83,2.17,3,3,0,0,0,2.14.79,5.32,5.32,0,0,0,3-1.17,24.23,24.23,0,0,0,3.11-2.62,40.81,40.81,0,0,0,3.45-3.8,62.45,62.45,0,0,1,2.14-10.9,41.93,41.93,0,0,1,1.41-4,17.36,17.36,0,0,1,1.9-3.49A9.73,9.73,0,0,1,46,24.84a5.34,5.34,0,0,1,3-.93A3.78,3.78,0,0,1,51.85,25a3.57,3.57,0,0,1,1.07,2.65,10.37,10.37,0,0,1-.41,2.76,24.71,24.71,0,0,1-1.11,3.14c-.46,1.09-1,2.17-1.55,3.25s-1.16,2.13-1.76,3.14Q46,43.51,43.26,47.16a13.54,13.54,0,0,0,.83,3,7.9,7.9,0,0,0,1.24,2.07,2.5,2.5,0,0,0,2,.89,6.82,6.82,0,0,0,4.35-1.75,19.93,19.93,0,0,0,4-4.66A40.93,40.93,0,0,0,59.1,40a69.57,69.57,0,0,0,2.65-8,72.41,72.41,0,0,0,1.73-8.38A55.82,55.82,0,0,0,64.1,15.63Z" transform="translate(-0.69 -8.52)"/>
    <path d="M93.22,59.17a9.29,9.29,0,0,1-6.35-2.11,6.92,6.92,0,0,1-2.41-5.48A12.6,12.6,0,0,1,85,47.89c.37-1.22.78-2.38,1.24-3.49s.87-2.11,1.24-3A6.53,6.53,0,0,0,88,39c0-1.33-.5-2-1.51-2a5.89,5.89,0,0,0-3.66,1.48,13.61,13.61,0,0,0-3.35,4.21,27,27,0,0,0-2.41,6.56,36.1,36.1,0,0,0-.93,8.52,1.87,1.87,0,0,1-.25,1,1.11,1.11,0,0,1-1,.38,12.45,12.45,0,0,1-2.2-.21,9.78,9.78,0,0,1-2.21-.66,4.68,4.68,0,0,1-1.69-1.17,2.41,2.41,0,0,1-.66-1.69,45,45,0,0,1,.76-7.35,86.83,86.83,0,0,1,2.21-9.45q1.44-5,3.45-10a58.49,58.49,0,0,1,4.48-9.07A28.1,28.1,0,0,1,84.46,13a9.21,9.21,0,0,1,6.14-2.52,4.77,4.77,0,0,1,2.27.59,7.73,7.73,0,0,1,2,1.52,7.88,7.88,0,0,1,1.42,2,4.64,4.64,0,0,1,.52,2,11.42,11.42,0,0,1-1.38,4.93,50.15,50.15,0,0,1-3.07,5.35q-1.69,2.55-3.14,4.38c-1,1.22-1.52,1.9-1.66,2a4.72,4.72,0,0,1,.59-.34c.34-.18.77-.38,1.27-.59a12.24,12.24,0,0,1,1.76-.55,9,9,0,0,1,2.11-.24,3.42,3.42,0,0,1,1.55.41A5,5,0,0,1,96.25,33a6.77,6.77,0,0,1,1,1.51,3.79,3.79,0,0,1,.41,1.73A10.22,10.22,0,0,1,97,39.74c-.46,1.27-1,2.58-1.51,3.94S94.44,46.41,94,47.82a13.11,13.11,0,0,0-.69,4.1,2.93,2.93,0,0,0,.58,1.9,2,2,0,0,0,1.63.72,4.84,4.84,0,0,0,2.72-.89,12.17,12.17,0,0,0,2.38-2.07,15.32,15.32,0,0,0,2.28-3,1.26,1.26,0,0,1,.34-.48,2.07,2.07,0,0,1,.42-.31,1.1,1.1,0,0,1,.62-.18,1.43,1.43,0,0,1,1,.42,1.26,1.26,0,0,1,.34,1.48c-.06.16-.15.34-.24.52s-.18.39-.27.62A24.73,24.73,0,0,1,101.71,55a19.87,19.87,0,0,1-3.77,2.9A9,9,0,0,1,93.22,59.17Zm.21-42.71q0-1.38-1.32-1.38-1,0-2.31,1.62a28.24,28.24,0,0,0-2.89,4.48Q85.35,24,83.66,28t-3.34,8.56A27.69,27.69,0,0,0,82.94,34q1.44-1.59,2.9-3.45t2.82-3.93q1.38-2.07,2.42-4a34.4,34.4,0,0,0,1.69-3.52A7.4,7.4,0,0,0,93.43,16.46Z" transform="translate(-0.69 -8.52)"/>
    <path d="M135.79,50.68a11.33,11.33,0,0,1-3,3,15.6,15.6,0,0,1-3.76,2.07,14.08,14.08,0,0,1-5.27.89,18.89,18.89,0,0,1-2.7-.2,12.93,12.93,0,0,1-3.65,2,12.14,12.14,0,0,1-4.21.73,11.53,11.53,0,0,1-7.56-2.83,9.66,9.66,0,0,1-2.34-3.11,8.56,8.56,0,0,1-.87-3.79A18.77,18.77,0,0,1,104,41.75a17.62,17.62,0,0,1,3.83-5.63A16.38,16.38,0,0,1,113,32.67a14.42,14.42,0,0,1,5.52-1.17,11.4,11.4,0,0,1,4,.69,8.75,8.75,0,0,1,3.21,2,9.94,9.94,0,0,1,2.14,3.25,10.86,10.86,0,0,1,.79,4.24,16.51,16.51,0,0,1-1.13,5.8,22.08,22.08,0,0,1-3.14,5.65,3.61,3.61,0,0,0,.51.11,5,5,0,0,0,.59,0,7.14,7.14,0,0,0,3.24-.72A14.19,14.19,0,0,0,131.24,51a18.56,18.56,0,0,0,2.34-2.35,1.3,1.3,0,0,1,.35-.48,2.27,2.27,0,0,1,.41-.31,1.12,1.12,0,0,1,.62-.18,1.43,1.43,0,0,1,1,.42,1.29,1.29,0,0,1,.35,1.48c-.07.16-.15.34-.24.52A5.19,5.19,0,0,0,135.79,50.68Zm-25.18.48a6,6,0,0,0,.86,3.38,2.74,2.74,0,0,0,2.45,1.31,3.41,3.41,0,0,0,2.14-.82,2.08,2.08,0,0,1-1.18-1.66,2.27,2.27,0,0,1,.38-1.17,4.93,4.93,0,0,1,.93-1.1,5.91,5.91,0,0,1,1.14-.8,2.21,2.21,0,0,1,1-.31,2.46,2.46,0,0,1,.76.14,30.57,30.57,0,0,0,1.59-5.56,28.28,28.28,0,0,0,.55-5.21,5.61,5.61,0,0,0-.76-3.34,2.31,2.31,0,0,0-1.93-1,4.05,4.05,0,0,0-2.55,1.2,12.56,12.56,0,0,0-2.59,3.39,22.88,22.88,0,0,0-2,5.1A24.67,24.67,0,0,0,110.61,51.16Z" transform="translate(-0.69 -8.52)"/>
    <path d="M182.71,12.59a8.19,8.19,0,0,0-3.31.66A8.7,8.7,0,0,0,176.78,15a7.69,7.69,0,0,0-1.73,2.49,7.27,7.27,0,0,0-.62,2.93,12,12,0,0,0,.76,4.21,29.07,29.07,0,0,0,1.86,4.07c.74,1.33,1.54,2.67,2.42,4s1.68,2.67,2.41,4a30,30,0,0,1,1.86,4,11.29,11.29,0,0,1,.76,4.07,11.55,11.55,0,0,1-1.45,5.72A15.45,15.45,0,0,1,179.23,55a18.62,18.62,0,0,1-5.39,3,17.44,17.44,0,0,1-6.1,1.11A23.61,23.61,0,0,1,159.87,58a19.74,19.74,0,0,1-5.8-3.07,13.56,13.56,0,0,1-3.58-4.14,9.31,9.31,0,0,1-1.25-4.49,6.45,6.45,0,0,1,1.59-4.1,16.37,16.37,0,0,1,3.83-3.42,23.23,23.23,0,0,1,4.66-2.31,12.68,12.68,0,0,1,4.07-.86,1.15,1.15,0,0,1,.83,2c-.23.2-.6.49-1.11.86s-1.1.93-1.65,1.41A10.89,10.89,0,0,0,160,41.43a8.57,8.57,0,0,0-1.07,2,8,8,0,0,0-.41,2.66,7.25,7.25,0,0,0,.59,2.79,8.72,8.72,0,0,0,4.24,4.52,7.4,7.4,0,0,0,3.38.76,8.88,8.88,0,0,0,6.35-2.28,8.11,8.11,0,0,0,2.41-6.21,10.78,10.78,0,0,0-1.55-5.31q-1.54-2.76-3.38-5.69c-1.22-2-2.34-4-3.38-6.08a14.44,14.44,0,0,1-1.55-6.45,10.28,10.28,0,0,1,1.65-5.76,15.45,15.45,0,0,1,4.25-4.28,20.23,20.23,0,0,1,5.79-2.69,22.66,22.66,0,0,1,6.32-.93,18.6,18.6,0,0,1,3.65.35,11.2,11.2,0,0,1,3,1,6.08,6.08,0,0,1,2.1,1.76,4.12,4.12,0,0,1,.8,2.52A6.65,6.65,0,0,1,192,17.84a17.46,17.46,0,0,1-2.77,3.24A16,16,0,0,1,186,23.43a6.06,6.06,0,0,1-2.55.89,1.13,1.13,0,0,1-.83-.34,1,1,0,0,1-.34-.69,1.3,1.3,0,0,1,.17-.66,7.45,7.45,0,0,1,.72-1,19.41,19.41,0,0,0,1.93-2.86,6.66,6.66,0,0,0,1-3.35,2.49,2.49,0,0,0-.93-2.1A3.84,3.84,0,0,0,182.71,12.59Z" transform="translate(-0.69 -8.52)"/>
    <path d="M223.35,50.68A24.26,24.26,0,0,1,220,55a19.79,19.79,0,0,1-3.76,2.9,9,9,0,0,1-4.73,1.31,8,8,0,0,1-4.9-1.49,6.07,6.07,0,0,1-2.34-4.38,18.13,18.13,0,0,1-3,3,19.18,19.18,0,0,1-3.1,2,8,8,0,0,1-3.73.9,6.93,6.93,0,0,1-2.66-.52,6.42,6.42,0,0,1-2.2-1.48,7.3,7.3,0,0,1-2-5.18A20.39,20.39,0,0,1,189,44.61a26,26,0,0,1,3.7-6.59,20.08,20.08,0,0,1,5.1-4.73,10.55,10.55,0,0,1,5.66-1.79,10.27,10.27,0,0,1,5.87,1.65,8.11,8.11,0,0,1,1.65,1.59,8.59,8.59,0,0,1,1.62.17,5.76,5.76,0,0,1,1.59.56,3.67,3.67,0,0,1,1.21,1,2.39,2.39,0,0,1,.48,1.51,8.67,8.67,0,0,1-.62,2.49c-.42,1.15-.88,2.43-1.38,3.83s-1,2.85-1.38,4.35a15.18,15.18,0,0,0-.62,4,1.93,1.93,0,0,0,.52,1.38,1.82,1.82,0,0,0,1.41.55,4.87,4.87,0,0,0,2.73-.89,12.47,12.47,0,0,0,2.38-2.07,15.69,15.69,0,0,0,2.27-3,1.3,1.3,0,0,1,.35-.48,2.27,2.27,0,0,1,.41-.31,1.1,1.1,0,0,1,.62-.18,1.43,1.43,0,0,1,1,.42,1.29,1.29,0,0,1,.35,1.48c-.07.16-.15.34-.24.52A5.19,5.19,0,0,0,223.35,50.68Zm-16-12.21a3.1,3.1,0,0,0-.72-2.25,2.42,2.42,0,0,0-1.76-.72,4.54,4.54,0,0,0-3.11,1.59,17.57,17.57,0,0,0-2.86,3.9,26,26,0,0,0-2.1,5,16.32,16.32,0,0,0-.83,4.83c0,2.07.66,3.1,2,3.1a4.42,4.42,0,0,0,2.86-1.65,21.85,21.85,0,0,0,3.07-4.07,30.88,30.88,0,0,0,2.45-5.08A13.4,13.4,0,0,0,207.34,38.47Z" transform="translate(-0.69 -8.52)"/>
    <path d="M229,51.92a2.93,2.93,0,0,0,.58,1.9,2,2,0,0,0,1.63.72,4.84,4.84,0,0,0,2.72-.89,12.17,12.17,0,0,0,2.38-2.07,15.32,15.32,0,0,0,2.28-3,1.26,1.26,0,0,1,.34-.48,2.4,2.4,0,0,1,.42-.31,1.1,1.1,0,0,1,.62-.18,1.43,1.43,0,0,1,1,.42,1.26,1.26,0,0,1,.34,1.48c-.06.16-.15.34-.24.52s-.18.39-.27.62A24.73,24.73,0,0,1,237.43,55a19.79,19.79,0,0,1-3.76,2.9,9,9,0,0,1-4.73,1.31,9.29,9.29,0,0,1-6.35-2.11,6.92,6.92,0,0,1-2.41-5.48,19.67,19.67,0,0,1,.62-4.49q.62-2.62,1.45-5.31c.55-1.79,1.13-3.5,1.76-5.11s1.13-2.89,1.55-3.86a2.54,2.54,0,0,1,.76-.93,1.75,1.75,0,0,1,1.1-.38,4,4,0,0,1,1.73.48,11.19,11.19,0,0,1,1.79,1.11,8.59,8.59,0,0,1,1.38,1.27,1.89,1.89,0,0,1,.55,1.07,10.51,10.51,0,0,1-.62,3.42c-.41,1.22-.86,2.52-1.34,3.9s-.93,2.84-1.32,4.38A19.45,19.45,0,0,0,229,51.92Zm9.93-33.19a8.2,8.2,0,0,1-.44,2.66,7.87,7.87,0,0,1-1.25,2.28,6.49,6.49,0,0,1-1.79,1.58,4,4,0,0,1-2.1.59,3.71,3.71,0,0,1-2.63-1,3.81,3.81,0,0,1-1.1-2.9,7,7,0,0,1,.48-2.56,8.69,8.69,0,0,1,1.28-2.24,6.36,6.36,0,0,1,1.83-1.58,4.31,4.31,0,0,1,2.21-.59,3.33,3.33,0,0,1,2.51,1A3.79,3.79,0,0,1,238.94,18.73Z" transform="translate(-0.69 -8.52)"/>
    <path d="M266.13,59.17a8.28,8.28,0,0,1-3.52-.73,10.43,10.43,0,0,1-2.73-1.76,8.84,8.84,0,0,1-1.79-2.2,5.13,5.13,0,0,1-.72-2.07,25.36,25.36,0,0,1-3.52,3.38,19.86,19.86,0,0,1-3.63,2.34,9.06,9.06,0,0,1-4.17,1,7.09,7.09,0,0,1-2.86-.62,8.09,8.09,0,0,1-2.52-1.73,8.46,8.46,0,0,1-1.8-2.69,8.74,8.74,0,0,1-.69-3.45,18.19,18.19,0,0,1,1.66-7.76A21.28,21.28,0,0,1,244,36.85a20.12,20.12,0,0,1,5.35-3.94,12.08,12.08,0,0,1,5.28-1.41,9.14,9.14,0,0,1,1.79.17,10.12,10.12,0,0,1,1.38.38,11,11,0,0,1,1.17.55,73,73,0,0,1,2.83-8.21,47.11,47.11,0,0,1,3.62-7.11,21.63,21.63,0,0,1,4.18-5,7,7,0,0,1,4.62-1.87,4.6,4.6,0,0,1,2.11.56,7.42,7.42,0,0,1,1.93,1.44,7.66,7.66,0,0,1,1.41,2.07,5.5,5.5,0,0,1,.56,2.35,9.74,9.74,0,0,1-.66,3.11,36.68,36.68,0,0,1-1.73,4q-1.06,2.18-2.41,4.52t-2.79,4.62q-3.31,5.33-7.59,11.32c-.1.6-.17,1.19-.21,1.76s-.07,1.14-.07,1.69a11,11,0,0,0,.9,4.76,3,3,0,0,0,2.82,1.86,4.73,4.73,0,0,0,2.7-.89,12.85,12.85,0,0,0,2.34-2.07,15.32,15.32,0,0,0,2.28-3,1.26,1.26,0,0,1,.34-.48,2.4,2.4,0,0,1,.42-.31,1.1,1.1,0,0,1,.62-.18,1.43,1.43,0,0,1,1,.42,1.26,1.26,0,0,1,.34,1.48,3.91,3.91,0,0,1-.24.52c-.09.18-.18.39-.27.62A24.73,24.73,0,0,1,274.62,55a20.12,20.12,0,0,1-3.76,2.9A9,9,0,0,1,266.13,59.17Zm-8.07-22.7-.56-.56a4.06,4.06,0,0,0-.62-.37,1.61,1.61,0,0,0-.76-.18A5,5,0,0,0,252.78,37a17.17,17.17,0,0,0-3,3.9,24,24,0,0,0-2.17,4.93,16.06,16.06,0,0,0-.83,4.76,5.2,5.2,0,0,0,.69,2.9,2.14,2.14,0,0,0,1.86,1,4.48,4.48,0,0,0,2.42-.87,18.4,18.4,0,0,0,2.48-2,33.77,33.77,0,0,0,2.69-2.9q.08-3.11.38-6.11C257.47,40.64,257.73,38.58,258.06,36.47Zm7.38,2.89q3-5,5.45-9.52c.69-1.28,1.37-2.61,2-4s1.25-2.66,1.76-3.9.92-2.4,1.24-3.45a9.76,9.76,0,0,0,.48-2.76c0-.78-.32-1.18-1-1.18s-1.33.73-2.2,2.18a41.2,41.2,0,0,0-2.76,5.69Q269,26,267.68,30.39T265.44,39.36Z" transform="translate(-0.69 -8.52)"/>
    <path d="M330.44,8.52a3.17,3.17,0,0,1,2.07.73,2.55,2.55,0,0,1,.89,2.1,3.49,3.49,0,0,1-.45,1.76,5.82,5.82,0,0,1-1.1,1.41,6.17,6.17,0,0,1-1.48,1,5.8,5.8,0,0,1-1.59.55,4.54,4.54,0,0,0-.83,1.55,24.74,24.74,0,0,0-.83,3.21q-.4,2.07-1,5.25c-.37,2.11-.81,4.67-1.31,7.66A57.62,57.62,0,0,1,322.29,44a30.33,30.33,0,0,1-4.14,8,18.55,18.55,0,0,1-5.86,5.24,15.7,15.7,0,0,1-7.8,1.9,12.49,12.49,0,0,1-5.55-1.24,16.17,16.17,0,0,1-4.32-3,14.63,14.63,0,0,1-2.79-3.83,8.34,8.34,0,0,1-1-3.62,1.91,1.91,0,0,1,.24-1,.86.86,0,0,1,.8-.41.79.79,0,0,1,.68.27l.42.56a13.53,13.53,0,0,0,1.24,1.62A13.06,13.06,0,0,0,296,50.16a9.74,9.74,0,0,0,2.32,1.31,7.44,7.44,0,0,0,2.86.52,10.86,10.86,0,0,0,5.59-1.45,15.61,15.61,0,0,0,4.45-4,26.71,26.71,0,0,0,3.45-6,59.22,59.22,0,0,0,2.59-7.66q1.1-4.14,2-7.21c.62-2.05,1.19-3.76,1.69-5.14.56-1.61,1.08-3,1.59-4.14A32,32,0,0,0,314.29,20a21.41,21.41,0,0,0-3,2.24,17.75,17.75,0,0,0-2.62,2.9,13.91,13.91,0,0,0-1.86,3.62,13.42,13.42,0,0,0-.69,4.41,5.52,5.52,0,0,0,.83,3.32,10.08,10.08,0,0,0,1.58,1.72,5.33,5.33,0,0,0,.73.62.85.85,0,0,1,.38.69q0,.9-1.38.9a7.55,7.55,0,0,1-3-.76,13.23,13.23,0,0,1-3.31-2.14,12.31,12.31,0,0,1-2.69-3.34,8.81,8.81,0,0,1-1.11-4.39,10,10,0,0,1,1.21-4.83,15.09,15.09,0,0,1,3.24-4,23.71,23.71,0,0,1,4.7-3.17,55.19,55.19,0,0,1,5.52-2.49,55.91,55.91,0,0,1,5.76-1.86c1.93-.5,3.72-.92,5.38-1.24a8.9,8.9,0,0,1,3.24-2.9A7.73,7.73,0,0,1,330.44,8.52Z" transform="translate(-0.69 -8.52)"/>
    <path d="M338.71,54.54a4.87,4.87,0,0,0,2.73-.89,12.17,12.17,0,0,0,2.38-2.07,15.32,15.32,0,0,0,2.28-3,1.26,1.26,0,0,1,.34-.48,2.4,2.4,0,0,1,.42-.31,1.1,1.1,0,0,1,.62-.18,1.43,1.43,0,0,1,1,.42,1.26,1.26,0,0,1,.34,1.48c-.07.16-.15.34-.24.52s-.18.39-.27.62A24.73,24.73,0,0,1,344.93,55a19.87,19.87,0,0,1-3.77,2.9,9,9,0,0,1-4.72,1.31,10.95,10.95,0,0,1-6.52-2.28,9.63,9.63,0,0,1-2.35-2.62,6.22,6.22,0,0,1-.93-3.31A23.87,23.87,0,0,1,327,47.4c.24-1.4.56-2.93,1-4.59s.89-3.4,1.42-5.24,1.09-3.66,1.69-5.45h-1.87c-.37,0-.55-.21-.55-.62A2.93,2.93,0,0,1,329.3,30a1.79,1.79,0,0,1,1.41-.93h1.38q1-2.82,2-5.21a34.72,34.72,0,0,1,2-4,2.76,2.76,0,0,1,.76-.93,1.7,1.7,0,0,1,1.11-.38,3.76,3.76,0,0,1,1.69.48,11,11,0,0,1,1.76,1.14,8.83,8.83,0,0,1,1.38,1.34,2.11,2.11,0,0,1,.55,1.18,8.47,8.47,0,0,1-.66,2.17c-.44,1.13-1,2.54-1.62,4.24h4.62c.37,0,.56.21.56.62a1.57,1.57,0,0,1-.21.69,4.06,4.06,0,0,1-.52.8,4.43,4.43,0,0,1-.65.65,1.1,1.1,0,0,1-.69.28h-4.28c-.55,1.52-1.12,3.13-1.69,4.83s-1.1,3.38-1.56,5-.84,3.25-1.13,4.79a22,22,0,0,0-.45,4.18,3.33,3.33,0,0,0,1.07,2.58A3.62,3.62,0,0,0,338.71,54.54Z" transform="translate(-0.69 -8.52)"/>
    <path d="M365.35,14.39a6.68,6.68,0,0,0-2.56.51,7.31,7.31,0,0,0-2.24,1.49A7,7,0,0,0,359,18.7a7.47,7.47,0,0,0-.59,3.07,8.36,8.36,0,0,0,.24,2.14,8.78,8.78,0,0,0,.55,1.52c.21.41.39.76.55,1a1.53,1.53,0,0,1,.25.69c0,.46-.4.69-1.18.69a7.76,7.76,0,0,1-2.83-.59,12,12,0,0,1-2.86-1.58,8.91,8.91,0,0,1-2.24-2.42,5.59,5.59,0,0,1-.9-3.07,7.12,7.12,0,0,1,1.21-4A11.09,11.09,0,0,1,354.45,13a16.53,16.53,0,0,1,4.86-2.07,23.55,23.55,0,0,1,5.9-.72q6.82,0,10.63,2.76A9.35,9.35,0,0,1,379.63,21a10.17,10.17,0,0,1-1.21,4.93,19.11,19.11,0,0,1-3.07,4.21,35.56,35.56,0,0,1-4.14,3.73l-4.38,3.38q-2.1,1.62-3.83,3.24a9.52,9.52,0,0,0-2.41,3.35,3.22,3.22,0,0,1-.8,1.21,2.54,2.54,0,0,1-1.2.51,11.3,11.3,0,0,0-2.52.63,5.23,5.23,0,0,1-1.69.41,1.08,1.08,0,0,1-.69-.28,1,1,0,0,1-.35-.82A6.48,6.48,0,0,1,354.55,42a32.25,32.25,0,0,1,3-3.9c1.2-1.36,2.51-2.77,3.93-4.25a49.48,49.48,0,0,0,3.94-4.58,28.69,28.69,0,0,0,3-5,12.76,12.76,0,0,0,1.21-5.42,4.15,4.15,0,0,0-1.32-3.34A4.38,4.38,0,0,0,365.35,14.39Zm-15,41.05a4.66,4.66,0,0,1,.44-1.9A7.19,7.19,0,0,1,352,51.72a6,6,0,0,1,1.72-1.38,4.18,4.18,0,0,1,2-.56,3.63,3.63,0,0,1,2.58.93,3.38,3.38,0,0,1,1,2.59,5.59,5.59,0,0,1-.38,2,6.56,6.56,0,0,1-1.11,1.86,6,6,0,0,1-1.72,1.42,4.55,4.55,0,0,1-2.18.55,3.46,3.46,0,0,1-2.62-1A3.68,3.68,0,0,1,350.38,55.44Z" transform="translate(-0.69 -8.52)"/>
  </g>
</svg>
